<?xml version="1.0" encoding="utf-8"?>
<!-- Generator: Adobe Illustrator 19.0.0, SVG Export Plug-In . SVG Version: 6.00 Build 0)  -->
<svg version="1.1" xmlns="http://www.w3.org/2000/svg" xmlns:xlink="http://www.w3.org/1999/xlink" x="0px" y="0px"
	 viewBox="0 0 1355.8 735" style="enable-background:new 0 0 1355.8 735;" xml:space="preserve">
<style type="text/css">
	.Drop_x0020_Shadow{fill:none;}
	.st0{fill:#414141;}
	.st1{fill:#FFFFFF;}
	.st2{fill-rule:evenodd;clip-rule:evenodd;fill:#414042;}
	.st3{fill-rule:evenodd;clip-rule:evenodd;fill:#BCBEC0;}
	.st4{fill:#BCBEC0;}
	.st5{fill:none;}
	.st6{fill:#F4F4F4;}
	.st7{fill:none;stroke:#BCBEC0;stroke-miterlimit:10;}
	.st8{display:none;}
	.st9{display:inline;}
	.st10{fill:#B2242E;}
	.st11{font-family:'MyriadPro-Regular';}
	.st12{font-size:45px;}
	.st13{fill:none;stroke:#FFFFFF;stroke-width:5;stroke-miterlimit:10;}
	.st14{fill:#828282;}
	.st15{fill:#414042;}
	.st16{display:inline;fill:#FFFFFF;}
	.st17{fill:#8C8485;}
	.st18{fill:#F7941E;}
	.st19{fill:#C9C9C9;}
	.st20{fill:#2B2826;}
</style>
<g id="bg">
	<polygon class="st0" points="1355.9,736.4 0.3,736.4 -0.3,0 1355.3,0 	"/>
</g>
<g id="sketches">
	<g>
		<g>
			
				<image style="overflow:visible;opacity:0.75;" width="1669" height="1504" xlink:href="FE52DD7C.png"  transform="matrix(0.24 0 0 0.24 1238.7003 356.0325)">
			</image>
			<g>
				
					<rect x="1320" y="377.6" transform="matrix(0.4147 0.9099 -0.9099 0.4147 1327.3558 -994.7039)" class="st1" width="233.9" height="313.7"/>
			</g>
		</g>
		<path class="st2" d="M1562.6,557l-65.3-137.2c-1.5-3.1-0.1-6.9,3-8.4l13.8-6.6c3.1-1.5,6.9-0.1,8.4,3l65.3,137.2
			c1.5,3.1,0.1,6.9-3,8.4L1571,560C1567.8,561.5,1564.1,560.1,1562.6,557z"/>
		<path class="st3" d="M1364,653.1l-65.3-137.2c-1.5-3.1-0.1-6.9,3-8.4l179.4-85.4c3.1-1.5,6.9-0.1,8.4,3l65.3,137.2
			c1.5,3.1,0.1,6.9-3,8.4l-179.4,85.4C1369.2,657.6,1365.4,656.3,1364,653.1z"/>
	</g>
	<g>
		<g>
			
				<image style="overflow:visible;opacity:0.75;" width="1690" height="1557" xlink:href="FE52DD72.png"  transform="matrix(0.24 0 0 0.24 -78.4218 -143.9437)">
			</image>
			<g>
				
					<rect x="5.3" y="-116" transform="matrix(0.4792 0.8777 -0.8777 0.4792 99.5735 -86.0597)" class="st1" width="233.9" height="313.7"/>
			</g>
		</g>
		<path class="st2" d="M249.2,54.3l-75-132.2c-1.7-3-0.6-6.9,2.4-8.6l13.3-7.5c3-1.7,6.9-0.6,8.6,2.4l75,132.2
			c1.7,3,0.6,6.9-2.4,8.6l-13.3,7.5C254.8,58.3,250.9,57.3,249.2,54.3z"/>
		<path class="st3" d="M58.1,164.4L-17,32.3c-1.7-3-0.6-6.9,2.4-8.6l172.8-98.1c3-1.7,6.9-0.6,8.6,2.4l75,132.2
			c1.7,3,0.6,6.9-2.4,8.6L66.6,166.8C63.6,168.5,59.8,167.5,58.1,164.4z"/>
	</g>
	<g>
		<g>
			
				<image style="overflow:visible;opacity:0.75;" width="1704" height="1611" xlink:href="FE52DD70.png"  transform="matrix(0.24 0 0 0.24 266.2134 -225.1381)">
			</image>
			<g>
				<path class="st1" d="M273.2-44.2l129.7,194.7L664-23.5L534.3-218.1L273.2-44.2z"/>
			</g>
		</g>
		<g>
			<g>
				<path class="st4" d="M366.7,95.3c0,0,3.8-1.9,10.4-5.2c6.6-3.3,16.1-7.9,27.5-13.6c22.8-11.1,53.2-26,83.6-40.8
					c30.5-14.7,61-29.4,83.8-40.4c11.4-5.5,21-10,27.7-13.2c6.7-3.2,10.5-5,10.5-5s-3.8,1.9-10.4,5.2c-6.6,3.3-16.1,8-27.5,13.6
					c-22.8,11.1-53.2,26-83.6,40.8c-30.5,14.7-61,29.4-83.8,40.4c-11.5,5.5-21,10-27.7,13.2C370.5,93.5,366.7,95.3,366.7,95.3z"/>
			</g>
			<g>
				<path class="st4" d="M355.3,79c0,0,3.8-1.9,10.4-5.2c6.6-3.3,16.1-7.9,27.5-13.6c22.8-11.1,53.2-26,83.6-40.8
					c30.5-14.7,61-29.4,83.8-40.4c11.4-5.5,21-10,27.7-13.2c6.7-3.2,10.5-5,10.5-5s-3.8,1.9-10.4,5.2c-6.6,3.3-16.1,8-27.5,13.6
					c-22.8,11.1-53.2,26-83.6,40.8c-30.5,14.7-61,29.4-83.8,40.4c-11.5,5.5-21,10-27.7,13.2C359.1,77.1,355.3,79,355.3,79z"/>
			</g>
			<g>
				<path class="st4" d="M343.4,49.9c0,0,3.8-1.9,10.4-5.2c6.6-3.3,16.1-7.9,27.5-13.6c22.8-11.1,53.2-26,83.6-40.8
					c30.5-14.7,61-29.4,83.8-40.4c11.4-5.5,21-10,27.7-13.2c6.7-3.2,10.5-5,10.5-5s-3.8,1.9-10.4,5.2c-6.6,3.3-16.1,8-27.5,13.6
					c-22.8,11.1-53.2,26-83.6,40.8C435,6,404.5,20.7,381.6,31.7c-11.5,5.5-21,10-27.7,13.2C347.3,48.1,343.4,49.9,343.4,49.9z"/>
			</g>
			<g>
				<path class="st4" d="M334.2,15.4c0,0,3.8-1.9,10.4-5.2c6.6-3.3,16.1-7.9,27.5-13.6c22.8-11.1,53.2-26,83.6-40.8
					c30.5-14.7,61-29.4,83.8-40.4c11.4-5.5,21-10,27.7-13.2c6.7-3.2,10.5-5,10.5-5s-3.8,1.9-10.4,5.2c-6.6,3.3-16.1,8-27.5,13.6
					c-22.8,11.1-53.2,26-83.6,40.8c-30.5,14.7-61,29.4-83.8,40.4c-11.5,5.5-21,10-27.7,13.2C338,13.6,334.2,15.4,334.2,15.4z"/>
			</g>
			<g>
				<path class="st4" d="M323.7-17.2c0,0,3.8-1.9,10.4-5.2c6.6-3.3,16.1-7.9,27.5-13.6c22.8-11.1,53.2-26,83.6-40.8
					c30.5-14.7,61-29.4,83.8-40.4c11.4-5.5,21-10,27.7-13.2c6.7-3.2,10.5-5,10.5-5s-3.8,1.9-10.4,5.2c-6.6,3.3-16.1,8-27.5,13.6
					c-22.8,11.1-53.2,26-83.6,40.8c-30.5,14.7-61,29.4-83.8,40.4c-11.5,5.5-21,10-27.7,13.2C327.5-19,323.7-17.2,323.7-17.2z"/>
			</g>
			<g>
				<path class="st4" d="M445,98c0,0-5.7-11.5-14.3-28.7c-4.2-8.6-9.2-18.7-14.5-29.5C411,29,405.3,17.4,399.7,5.9
					c-5.6-11.6-11.2-23.1-16.4-33.9c-5.2-10.8-10.1-21-14.2-29.6c-8.3-17.4-13.8-29-13.8-29s5.7,11.5,14.3,28.7
					c4.2,8.6,9.2,18.7,14.5,29.5c5.3,10.8,10.9,22.3,16.5,33.9c5.6,11.6,11.2,23.1,16.4,33.9c5.2,10.8,10.1,21,14.2,29.6
					C439.5,86.4,445,98,445,98z"/>
			</g>
			<g>
				<path class="st5" d="M340.6-124"/>
			</g>
			<g>
				<path class="st5" d="M457.6,5.4"/>
			</g>
			<g>
				<path class="st4" d="M484.7,69.5c0,0-5.7-11.5-14.3-28.7c-4.2-8.6-9.2-18.7-14.5-29.5c-5.3-10.8-10.9-22.3-16.5-33.9
					c-5.6-11.6-11.2-23.1-16.4-33.9c-5.2-10.8-10.1-21-14.2-29.6c-8.3-17.4-13.8-29-13.8-29s5.7,11.5,14.3,28.7
					c4.2,8.6,9.2,18.7,14.5,29.5c5.3,10.8,10.9,22.3,16.5,33.9c5.6,11.6,11.2,23.1,16.4,33.9c5.2,10.8,10.1,21,14.2,29.6
					C479.2,58,484.7,69.5,484.7,69.5z"/>
			</g>
			<g>
				<path class="st4" d="M501.6,59.4c0,0-5.7-11.5-14.3-28.7c-4.2-8.6-9.2-18.7-14.5-29.5c-5.3-10.8-10.9-22.3-16.5-33.9
					c-5.6-11.6-11.2-23.1-16.4-33.9c-5.2-10.8-10.1-21-14.2-29.6c-8.3-17.4-13.8-29-13.8-29s5.7,11.5,14.3,28.7
					c4.2,8.6,9.2,18.7,14.5,29.5c5.3,10.8,10.9,22.3,16.5,33.9c5.6,11.6,11.2,23.1,16.4,33.9c5.2,10.8,10.1,21,14.2,29.6
					C496.1,47.8,501.6,59.4,501.6,59.4z"/>
			</g>
			<g>
				<path class="st4" d="M548.6,38.2c0,0-5.7-11.5-14.3-28.7c-4.2-8.6-9.2-18.7-14.5-29.5C514.6-30.9,509-42.4,503.4-54
					c-5.6-11.6-11.2-23.1-16.4-33.9c-5.2-10.8-10.1-21-14.2-29.6c-8.3-17.4-13.8-29-13.8-29s5.7,11.5,14.3,28.7
					c4.2,8.6,9.2,18.7,14.5,29.5c5.3,10.8,10.9,22.3,16.5,33.9c5.6,11.6,11.2,23.1,16.4,33.9c5.2,10.8,10.1,21,14.2,29.6
					C543.1,26.6,548.6,38.2,548.6,38.2z"/>
			</g>
			<g>
				<path class="st4" d="M570,30.5c0,0-5.7-11.5-14.3-28.7c-4.2-8.6-9.2-18.7-14.5-29.5c-5.3-10.8-10.9-22.3-16.5-33.9
					c-5.6-11.6-11.2-23.1-16.4-33.9c-5.2-10.8-10.1-21-14.2-29.6c-8.3-17.4-13.8-29-13.8-29s5.7,11.5,14.3,28.7
					c4.2,8.6,9.2,18.7,14.5,29.5c5.3,10.8,10.9,22.3,16.5,33.9c5.6,11.6,11.2,23.1,16.4,33.9c5.2,10.8,10.1,21,14.2,29.6
					C564.5,18.9,570,30.5,570,30.5z"/>
			</g>
		</g>
	</g>
	<g>
		<g>
			
				<image style="overflow:visible;opacity:0.75;" width="1703" height="1606" xlink:href="FE52DD71.png"  transform="matrix(0.24 0 0 0.24 920.9264 474.8093)">
			</image>
			<g>
				
					<rect x="1006.2" y="508.6" transform="matrix(0.546 0.8378 -0.8378 0.546 1067.3655 -638.8884)" class="st6" width="233.9" height="313.7"/>
			</g>
		</g>
		<g>
			<g>
				<path class="st4" d="M1029.8,603.8c0,0,7.5,10.8,18.7,27c5.6,8.1,12.1,17.6,19.1,27.8c6.9,10.2,14.3,21,21.8,31.9
					c7.4,10.9,14.7,21.8,21.6,32c6.9,10.2,13.3,19.8,18.8,27.9c10.9,16.4,18.2,27.3,18.2,27.3s-7.5-10.8-18.7-27
					c-5.6-8.1-12.1-17.6-19.1-27.8c-6.9-10.2-14.3-21-21.8-31.9c-7.4-10.9-14.7-21.8-21.6-32c-6.9-10.2-13.3-19.8-18.8-27.9
					C1037.1,614.7,1029.8,603.8,1029.8,603.8z"/>
			</g>
			<g>
				<path class="st4" d="M1041,593.1c0,0,7.5,10.8,18.7,27c5.6,8.1,12.1,17.6,19.1,27.8c6.9,10.2,14.3,21,21.8,31.9
					c7.4,10.9,14.7,21.8,21.6,32c6.9,10.2,13.3,19.8,18.8,27.9c10.9,16.4,18.2,27.3,18.2,27.3s-7.5-10.8-18.7-27
					c-5.6-8.1-12.1-17.6-19.1-27.8c-6.9-10.2-14.3-21-21.8-31.9c-7.4-10.9-14.7-21.8-21.6-32c-6.9-10.2-13.3-19.8-18.8-27.9
					C1048.3,604.1,1041,593.1,1041,593.1z"/>
			</g>
			<g>
				<path class="st4" d="M1087.3,569.7c0,0,7.5,10.8,18.7,27c5.6,8.1,12.1,17.6,19.1,27.8c6.9,10.2,14.3,21,21.8,31.9
					c7.4,10.9,14.7,21.8,21.6,32c6.9,10.2,13.3,19.8,18.8,27.9c10.9,16.4,18.2,27.3,18.2,27.3s-7.5-10.8-18.7-27
					c-5.6-8.1-12.1-17.6-19.1-27.8c-6.9-10.2-14.3-21-21.8-31.9c-7.4-10.9-14.7-21.8-21.6-32c-6.9-10.2-13.3-19.8-18.8-27.9
					C1094.6,580.6,1087.3,569.7,1087.3,569.7z"/>
			</g>
			<g>
				<path class="st4" d="M1111,557.9c0,0,7.5,10.8,18.7,27c5.6,8.1,12.1,17.6,19.1,27.8c6.9,10.2,14.3,21,21.8,31.9
					c7.4,10.9,14.7,21.8,21.6,32c6.9,10.2,13.3,19.8,18.8,27.9c10.9,16.4,18.2,27.3,18.2,27.3s-7.5-10.8-18.7-27
					c-5.6-8.1-12.1-17.6-19.1-27.8c-6.9-10.2-14.3-21-21.8-31.9c-7.4-10.9-14.7-21.8-21.6-32c-6.9-10.2-13.3-19.8-18.8-27.9
					C1118.3,568.8,1111,557.9,1111,557.9z"/>
			</g>
			<g>
				<path class="st4" d="M1062.9,583.7c0,0,7.5,10.8,18.7,27c5.6,8.1,12.1,17.6,19.1,27.8c6.9,10.2,14.3,21,21.8,31.9
					c7.4,10.9,14.7,21.8,21.6,32c6.9,10.2,13.3,19.8,18.8,27.9c10.9,16.4,18.2,27.3,18.2,27.3s-7.5-10.8-18.7-27
					c-5.6-8.1-12.1-17.6-19.1-27.8c-6.9-10.2-14.3-21-21.8-31.9c-7.4-10.9-14.7-21.8-21.6-32c-6.9-10.2-13.3-19.8-18.8-27.9
					C1070.2,594.7,1062.9,583.7,1062.9,583.7z"/>
			</g>
			<g>
				<path class="st4" d="M1010.3,616.5c0,0,7.5,10.8,18.7,27c5.6,8.1,12.1,17.6,19.1,27.8c6.9,10.2,14.3,21,21.8,31.9
					c7.4,10.9,14.7,21.8,21.6,32c6.9,10.2,13.3,19.8,18.8,27.9c10.9,16.4,18.2,27.3,18.2,27.3s-7.5-10.8-18.7-27
					c-5.6-8.1-12.1-17.6-19.1-27.8c-6.9-10.2-14.3-21-21.8-31.9c-7.4-10.9-14.7-21.8-21.6-32c-6.9-10.2-13.3-19.8-18.8-27.9
					C1017.6,627.5,1010.3,616.5,1010.3,616.5z"/>
			</g>
			<g>
				<path class="st4" d="M1036.6,664.3c0,0,8.1-5.7,20.3-14.3c6.1-4.3,13.3-9.2,20.9-14.5c7.7-5.3,15.9-10.9,24.1-16.6
					c8.2-5.6,16.4-11.2,24.1-16.5c7.7-5.2,14.9-10.1,21.1-14.3c12.4-8.3,20.7-13.8,20.7-13.8s-8.1,5.7-20.3,14.3
					c-6.1,4.3-13.3,9.2-20.9,14.5c-7.7,5.3-15.9,10.9-24.1,16.6c-8.2,5.6-16.4,11.2-24.1,16.5c-7.7,5.2-14.9,10.1-21.1,14.3
					C1044.9,658.8,1036.6,664.3,1036.6,664.3z"/>
			</g>
			<g>
				<path class="st4" d="M1062.9,691.6c0,0,8.1-5.7,20.3-14.3c6.1-4.3,13.3-9.2,20.9-14.5c7.7-5.3,15.9-10.9,24.1-16.6
					c8.2-5.6,16.4-11.2,24.1-16.5c7.7-5.2,14.9-10.1,21.1-14.3c12.4-8.3,20.7-13.8,20.7-13.8s-8.1,5.7-20.3,14.3
					c-6.1,4.3-13.3,9.2-20.9,14.5c-7.7,5.3-15.9,10.9-24.1,16.6c-8.2,5.6-16.4,11.2-24.1,16.5c-7.7,5.2-14.9,10.1-21.1,14.3
					C1071.2,686.1,1062.9,691.6,1062.9,691.6z"/>
			</g>
			<g>
				<path class="st4" d="M1072.7,703.5c0,0,8.1-5.7,20.3-14.3c6.1-4.3,13.3-9.2,20.9-14.5c7.7-5.3,15.9-10.9,24.1-16.6
					c8.2-5.6,16.4-11.2,24.1-16.5c7.7-5.2,14.9-10.1,21.1-14.3c12.4-8.3,20.7-13.8,20.7-13.8s-8.1,5.7-20.3,14.3
					c-6.1,4.3-13.3,9.2-20.9,14.5c-7.7,5.3-15.9,10.9-24.1,16.6c-8.2,5.6-16.4,11.2-24.1,16.5c-7.7,5.2-14.9,10.1-21.1,14.3
					C1080.9,698,1072.7,703.5,1072.7,703.5z"/>
			</g>
			<g>
				<path class="st4" d="M1080.8,740.8c0,0,8.1-5.7,20.3-14.3c6.1-4.3,13.3-9.2,20.9-14.5c7.7-5.3,15.9-10.9,24.1-16.6
					c8.2-5.6,16.4-11.2,24.1-16.5c7.7-5.2,14.9-10.1,21.1-14.3c12.4-8.3,20.7-13.8,20.7-13.8s-8.1,5.7-20.3,14.3
					c-6.1,4.3-13.3,9.2-20.9,14.5c-7.7,5.3-15.9,10.9-24.1,16.6c-8.2,5.6-16.4,11.2-24.1,16.5c-7.7,5.2-14.9,10.1-21.1,14.3
					C1089.1,735.3,1080.8,740.8,1080.8,740.8z"/>
			</g>
		</g>
		<ellipse class="st7" cx="1118.3" cy="639.4" rx="25.9" ry="25"/>
		<ellipse class="st7" cx="1097.3" cy="654.4" rx="25.9" ry="25"/>
		<ellipse class="st7" cx="1140.7" cy="667.9" rx="25.9" ry="25"/>
		<ellipse class="st7" cx="1118.3" cy="686" rx="25.9" ry="25"/>
	</g>
	<g>
		<g>
			<g>
				
					<image style="overflow:visible;opacity:0.75;" width="1308" height="1561" xlink:href="FE52DD6E.png"  transform="matrix(0.24 0 0 0.24 799.5818 328.6613)">
				</image>
				<g>
					
						<rect x="837.5" y="357.1" transform="matrix(0.9767 -0.2147 0.2147 0.9767 -88.1034 216.952)" class="st1" width="233.9" height="313.7"/>
				</g>
			</g>
		</g>
		<g>
			<path class="st3" d="M912,531.9l-37.8,8.6c-5.2,1.2-10.3-2.1-11.5-7.2l-16.8-73.5c-1.2-5.2,2.1-10.3,7.2-11.5l37.8-8.6
				c5.2-1.2,10.3,2.1,11.5,7.2l16.8,73.5C920.4,525.5,917.1,530.7,912,531.9z"/>
			<path class="st3" d="M976.7,517.4L939,526c-5.2,1.2-10.3-2.1-11.5-7.2l-16.8-73.5c-1.2-5.2,2.1-10.3,7.2-11.5l37.8-8.6
				c5.2-1.2,10.3,2.1,11.5,7.2l16.8,73.5C985.1,511,981.9,516.2,976.7,517.4z"/>
			<path class="st3" d="M1040.8,501.5l-37.8,8.6c-5.2,1.2-10.3-2.1-11.5-7.2l-16.8-73.5c-1.2-5.2,2.1-10.3,7.2-11.5l37.8-8.6
				c5.2-1.2,10.3,2.1,11.5,7.2l16.8,73.5C1049.2,495.1,1046,500.3,1040.8,501.5z"/>
			<path class="st3" d="M938.1,637.2l-37.8,8.6c-5.2,1.2-10.3-2.1-11.5-7.2L872,565c-1.2-5.2,2.1-10.3,7.2-11.5l37.8-8.6
				c5.2-1.2,10.3,2.1,11.5,7.2l16.8,73.5C946.5,630.8,943.2,636,938.1,637.2z"/>
			<path class="st3" d="M1003,623.4l-37.8,8.6c-5.2,1.2-10.3-2.1-11.5-7.2l-16.8-73.5c-1.2-5.2,2.1-10.3,7.2-11.5l37.8-8.6
				c5.2-1.2,10.3,2.1,11.5,7.2l16.8,73.5C1011.5,617,1008.2,622.2,1003,623.4z"/>
			<path class="st3" d="M1067,610l-37.8,8.6c-5.2,1.2-10.3-2.1-11.5-7.2l-16.8-73.5c-1.2-5.2,2.1-10.3,7.2-11.5l37.8-8.6
				c5.2-1.2,10.3,2.1,11.5,7.2l16.8,73.5C1075.5,603.7,1072.2,608.9,1067,610z"/>
			<path class="st2" d="M1024.4,392.5l-182.9,42.2c-3.4,0.8-6.8-1.3-7.5-4.7l-1.6-6.8c-0.8-3.4,1.3-6.8,4.7-7.5l182.9-42.2
				c3.4-0.8,6.8,1.3,7.5,4.7l1.6,6.8C1029.9,388.3,1027.8,391.7,1024.4,392.5z"/>
		</g>
	</g>
	<g>
		
			<image style="overflow:visible;opacity:0.75;" width="1760" height="1718" xlink:href="FE52DD6F.png"  transform="matrix(0.24 0 0 0.24 598.1644 211.2538)">
		</image>
		<g>
			<g>
				<g>
					
						<image style="overflow:visible;opacity:0.75;" width="1704" height="1661" xlink:href="FE52DD8C.png"  transform="matrix(0.24 0 0 0.24 602.9418 216.0938)">
					</image>
					<g>
						
							<rect x="688.4" y="256.5" transform="matrix(0.6403 0.7681 -0.7681 0.6403 607.1929 -469.8967)" class="st1" width="233.9" height="313.7"/>
					</g>
				</g>
				<g>
					<g>
						<path class="st4" d="M726.3,343.1c0,0,8.7,9.9,21.7,24.6c6.5,7.4,14.1,16.1,22.2,25.4c8.1,9.3,16.7,19.2,25.3,29.1
							c8.6,9.9,17.2,19.9,25.2,29.2c8,9.3,15.5,18.1,21.9,25.6c12.8,15,21.3,25,21.3,25s-8.7-9.9-21.7-24.6
							c-6.5-7.4-14.1-16.1-22.2-25.4c-8.1-9.3-16.7-19.2-25.3-29.1c-8.6-9.9-17.2-19.9-25.2-29.2c-8-9.3-15.5-18.1-21.9-25.6
							C734.8,353.1,726.3,343.1,726.3,343.1z"/>
					</g>
					<g>
						<path class="st4" d="M780.7,307.9c0,0,8.7,9.9,21.7,24.6c6.5,7.4,14.1,16.1,22.2,25.4c8.1,9.3,16.7,19.2,25.3,29.1
							c8.6,9.9,17.2,19.9,25.2,29.2c8,9.3,15.5,18.1,21.9,25.6c12.8,15,21.3,25,21.3,25s-8.7-9.9-21.7-24.6
							c-6.5-7.4-14.1-16.1-22.2-25.4c-8.1-9.3-16.7-19.2-25.3-29.1c-8.6-9.9-17.2-19.9-25.2-29.2c-8-9.3-15.5-18.1-21.9-25.6
							C789.2,318,780.7,307.9,780.7,307.9z"/>
					</g>
					<g>
						<path class="st4" d="M743.5,333.7c0,0,8.7,9.9,21.7,24.6c6.5,7.4,14.1,16.1,22.2,25.4c8.1,9.3,16.7,19.2,25.3,29.1
							c8.6,9.9,17.2,19.9,25.2,29.2c8,9.3,15.5,18.1,21.9,25.6c12.8,15,21.3,25,21.3,25s-8.7-9.9-21.7-24.6
							c-6.5-7.4-14.1-16.1-22.2-25.4c-8.1-9.3-16.7-19.2-25.3-29.1c-8.6-9.9-17.2-19.9-25.2-29.2c-8-9.3-15.5-18.1-21.9-25.6
							C752,343.7,743.5,333.7,743.5,333.7z"/>
					</g>
					<g>
						<path class="st4" d="M687.5,378c0,0,8.7,9.9,21.7,24.6c6.5,7.4,14.1,16.1,22.2,25.4c8.1,9.3,16.7,19.2,25.3,29.1
							c8.6,9.9,17.2,19.9,25.2,29.2c8,9.3,15.5,18.1,21.9,25.6c12.8,15,21.3,25,21.3,25s-8.7-9.9-21.7-24.6
							c-6.5-7.4-14.1-16.1-22.2-25.4c-8.1-9.3-16.7-19.2-25.3-29.1c-8.6-9.9-17.2-19.9-25.2-29.2c-8-9.3-15.5-18.1-21.9-25.6
							C696,388,687.5,378,687.5,378z"/>
					</g>
					<g>
						<path class="st4" d="M670.9,394.7c0,0,8.7,9.9,21.7,24.6c6.5,7.4,14.1,16.1,22.2,25.4c8.1,9.3,16.7,19.2,25.3,29.1
							c8.6,9.9,17.2,19.9,25.2,29.2c8,9.3,15.5,18.1,21.9,25.6c12.8,15,21.3,25,21.3,25s-8.7-9.9-21.7-24.6
							c-6.5-7.4-14.1-16.1-22.2-25.4c-8.1-9.3-16.7-19.2-25.3-29.1c-8.6-9.9-17.2-19.9-25.2-29.2c-8-9.3-15.5-18.1-21.9-25.6
							C679.4,404.7,670.9,394.7,670.9,394.7z"/>
					</g>
					<g>
						<path class="st4" d="M719.2,422.4c0,0,7.4-6.6,18.5-16.6c5.6-4.9,12.1-10.7,19.1-16.9c7-6.2,14.5-12.7,21.9-19.3
							c7.5-6.5,15-13.1,22-19.2c7.1-6.1,13.6-11.8,19.3-16.7c11.3-9.7,18.9-16.2,18.9-16.2s-7.4,6.6-18.5,16.6
							c-5.6,4.9-12.1,10.7-19.1,16.9c-7,6.2-14.5,12.7-21.9,19.3c-7.5,6.5-15,13.1-22,19.2c-7.1,6.1-13.6,11.8-19.3,16.7
							C726.8,415.9,719.2,422.4,719.2,422.4z"/>
					</g>
					<g>
						<path class="st4" d="M782.2,529c0,0,7.4-6.6,18.5-16.6c5.6-4.9,12.1-10.7,19.1-16.9c7-6.2,14.5-12.7,21.9-19.3
							c7.5-6.5,15-13.1,22-19.2c7.1-6.1,13.6-11.8,19.3-16.7c11.3-9.7,18.9-16.2,18.9-16.2s-7.4,6.6-18.5,16.6
							c-5.6,4.9-12.1,10.7-19.1,16.9c-7,6.2-14.5,12.7-21.9,19.3c-7.5,6.5-15,13.1-22,19.2c-7.1,6.1-13.6,11.8-19.3,16.7
							C789.8,522.5,782.2,529,782.2,529z"/>
					</g>
					<g>
						<path class="st4" d="M742,448.6c0,0,7.4-6.6,18.5-16.6c5.6-4.9,12.1-10.7,19.1-16.9c7-6.2,14.5-12.7,21.9-19.3
							c7.5-6.5,15-13.1,22-19.2c7.1-6.1,13.6-11.8,19.3-16.7c11.3-9.7,18.9-16.2,18.9-16.2s-7.4,6.6-18.5,16.6
							c-5.6,4.9-12.1,10.7-19.1,16.9c-7,6.2-14.5,12.7-21.9,19.3c-7.5,6.5-15,13.1-22,19.2c-7.1,6.1-13.6,11.8-19.3,16.7
							C749.6,442.2,742,448.6,742,448.6z"/>
					</g>
					<g>
						<path class="st4" d="M735.2,501c0,0,9.6-8.5,23.9-21.2c7.2-6.3,15.6-13.7,24.6-21.7c9-7.9,18.6-16.3,28.3-24.7
							c9.7-8.4,19.3-16.8,28.4-24.6c9.1-7.8,17.5-15.2,24.8-21.4c14.6-12.5,24.3-20.8,24.3-20.8s-9.6,8.5-23.9,21.2
							c-7.2,6.3-15.6,13.7-24.6,21.7c-9,7.9-18.6,16.3-28.3,24.7c-9.7,8.4-19.3,16.8-28.4,24.6c-9.1,7.8-17.5,15.2-24.8,21.4
							C744.9,492.7,735.2,501,735.2,501z"/>
					</g>
					<g>
						<path class="st4" d="M752.4,510.1c0,0,8.6-7.7,21.6-19.2c6.5-5.7,14.1-12.4,22.2-19.6c8.2-7.1,16.8-14.8,25.5-22.4
							c8.7-7.6,17.5-15.2,25.6-22.3c8.2-7.1,15.9-13.7,22.4-19.4c13.2-11.3,22-18.8,22-18.8s-8.6,7.7-21.6,19.2
							c-6.5,5.7-14.1,12.4-22.2,19.6c-8.2,7.1-16.8,14.8-25.5,22.4c-8.7,7.6-17.5,15.2-25.6,22.3c-8.2,7.1-15.9,13.7-22.4,19.4
							C761.2,502.6,752.4,510.1,752.4,510.1z"/>
					</g>
				</g>
				
					<ellipse transform="matrix(0.9931 -0.117 0.117 0.9931 -39.9113 96.8142)" class="st7" cx="804.8" cy="388.4" rx="25.9" ry="25"/>
				
					<ellipse transform="matrix(0.9931 -0.117 0.117 0.9931 -42.3858 93.3695)" class="st7" cx="774.2" cy="407.8" rx="25.9" ry="25"/>
				
					<ellipse transform="matrix(0.9931 -0.117 0.117 0.9931 -40.9603 100.5373)" class="st7" cx="836" cy="399.2" rx="25.9" ry="25"/>
				
					<ellipse transform="matrix(0.9931 -0.117 0.117 0.9931 -45.6728 101.6455)" class="st7" cx="843" cy="439.9" rx="25.9" ry="25"/>
				
					<ellipse transform="matrix(0.9931 -0.117 0.117 0.9931 -48.6082 98.7809)" class="st7" cx="817.2" cy="463.5" rx="25.9" ry="25"/>
				
					<ellipse transform="matrix(0.9931 -0.117 0.117 0.9931 -46.8549 94.5733)" class="st7" cx="782.2" cy="446.4" rx="25.9" ry="25"/>
			</g>
		</g>
	</g>
	<g>
		<g>
			<g>
				
					<image style="overflow:visible;opacity:0.75;" width="1427" height="1631" xlink:href="FE52DD8D.png"  transform="matrix(0.24 0 0 0.24 1021.8455 220.5786)">
				</image>
				<g>
					
						<rect x="1074" y="257.4" transform="matrix(0.9441 0.3298 -0.3298 0.9441 203.2386 -369.5969)" class="st6" width="233.9" height="313.7"/>
				</g>
			</g>
		</g>
		<g>
			<path class="st3" d="M1208.1,428.5l-99.4-33.8c-5-1.7-7.7-7.2-6-12.2l24.3-71.4c1.7-5,7.2-7.7,12.2-6l99.4,33.8
				c5,1.7,7.7,7.2,6,12.2l-24.3,71.4C1218.6,427.5,1213.1,430.2,1208.1,428.5z"/>
			<path class="st3" d="M1112.4,510.5l-36.7-12.5c-5-1.7-7.7-7.2-6-12.2l24.3-71.4c1.7-5,7.2-7.7,12.2-6l36.7,12.5
				c5,1.7,7.7,7.2,6,12.2l-24.3,71.4C1122.9,509.5,1117.4,512.2,1112.4,510.5z"/>
			<path class="st3" d="M1174.9,532.9l-36.7-12.5c-5-1.7-7.7-7.2-6-12.2l24.3-71.4c1.7-5,7.2-7.7,12.2-6l36.7,12.5
				c5,1.7,7.7,7.2,6,12.2l-24.3,71.4C1185.4,531.9,1179.9,534.6,1174.9,532.9z"/>
			<path class="st2" d="M1239.9,555.4l-36.7-12.5c-5-1.7-7.7-7.2-6-12.2l57.7-169.5c1.7-5,7.2-7.7,12.2-6l36.7,12.5
				c5,1.7,7.7,7.2,6,12.2l-57.7,169.5C1250.4,554.4,1244.9,557.1,1239.9,555.4z"/>
			<path class="st2" d="M1318.6,347.2l-144-48.6c-3.3-1.1-5-4.7-3.9-8l2.2-6.6c1.1-3.3,4.7-5,8-3.9l144,48.6c3.3,1.1,5,4.7,3.9,8
				l-2.2,6.6C1325.5,346.5,1321.9,348.3,1318.6,347.2z"/>
		</g>
	</g>
	<g>
		<g>
			
				<image style="overflow:visible;opacity:0.75;" width="1660" height="1704" xlink:href="FE52DD8F.png"  transform="matrix(0.24 0 0 0.24 -42.6273 555.2697)">
			</image>
			<g>
				<path class="st1" d="M144.6,562.3L-35.6,711.4l200,241.7L344.6,804L144.6,562.3z"/>
			</g>
		</g>
		<g>
			<g>
				<path class="st4" d="M13.3,700.2c0,0,2.8,3.2,7.6,8.8c4.8,5.6,11.7,13.7,19.9,23.3c16.4,19.4,38.3,45.2,60.2,71
					c21.8,25.9,43.5,51.8,59.9,71.3c8.2,9.7,14.9,17.9,19.6,23.6c4.7,5.7,7.4,8.9,7.4,8.9s-2.8-3.2-7.6-8.8
					c-4.8-5.6-11.7-13.6-19.9-23.3c-16.4-19.4-38.3-45.2-60.2-71c-21.8-25.9-43.5-51.8-59.9-71.3c-8.1-9.7-14.9-17.9-19.6-23.6
					C16,703.5,13.3,700.2,13.3,700.2z"/>
			</g>
			<g>
				<path class="st4" d="M26.4,685.1c0,0,2.8,3.2,7.6,8.8c4.8,5.6,11.7,13.7,19.9,23.3c16.4,19.4,38.3,45.2,60.2,71
					c21.8,25.9,43.5,51.8,59.9,71.3c8.2,9.7,14.9,17.9,19.6,23.6c4.7,5.7,7.4,8.9,7.4,8.9s-2.8-3.2-7.6-8.8
					c-4.8-5.6-11.7-13.6-19.9-23.3c-16.4-19.4-38.3-45.2-60.2-71c-21.8-25.9-43.5-51.8-59.9-71.3c-8.1-9.7-14.9-17.9-19.6-23.6
					C29.1,688.4,26.4,685.1,26.4,685.1z"/>
			</g>
			<g>
				<path class="st4" d="M82.8,649c0,0,2.8,3.2,7.6,8.8c4.8,5.6,11.7,13.7,19.9,23.3c16.4,19.4,38.3,45.2,60.2,71
					c21.8,25.9,43.5,51.8,59.9,71.3c8.2,9.7,14.9,17.9,19.6,23.6c4.7,5.7,7.4,8.9,7.4,8.9s-2.8-3.2-7.6-8.8
					c-4.8-5.6-11.7-13.6-19.9-23.3c-16.4-19.4-38.3-45.2-60.2-71c-21.8-25.9-43.5-51.8-59.9-71.3c-8.1-9.7-14.9-17.9-19.6-23.6
					C85.5,652.3,82.8,649,82.8,649z"/>
			</g>
			<g>
				<path class="st4" d="M111.7,630.8c0,0,2.8,3.2,7.6,8.8c4.8,5.6,11.7,13.7,19.9,23.3c16.4,19.4,38.3,45.2,60.2,71
					c21.8,25.9,43.5,51.8,59.9,71.3c8.2,9.7,14.9,17.9,19.6,23.6c4.7,5.7,7.4,8.9,7.4,8.9s-2.8-3.2-7.6-8.8
					c-4.8-5.6-11.7-13.6-19.9-23.3c-16.4-19.4-38.3-45.2-60.2-71c-21.8-25.9-43.5-51.8-59.9-71.3c-8.1-9.7-14.9-17.9-19.6-23.6
					C114.4,634,111.7,630.8,111.7,630.8z"/>
			</g>
			<g>
				<path class="st4" d="M30,776.8c0,0,9.7-8.4,24.3-20.9c7.3-6.2,15.9-13.5,25-21.3c9.2-7.8,19-16.1,28.8-24.4
					c9.8-8.3,19.6-16.5,28.8-24.3c9.2-7.7,17.8-14.9,25.2-21.1c14.8-12.3,24.7-20.5,24.7-20.5s-9.7,8.4-24.3,20.9
					c-7.3,6.2-15.9,13.5-25,21.3c-9.2,7.8-19,16.1-28.8,24.4c-9.8,8.3-19.6,16.5-28.8,24.3c-9.2,7.7-17.8,14.9-25.2,21.1
					C39.9,768.6,30,776.8,30,776.8z"/>
			</g>
			<g>
				<path class="st4" d="M67.4,808.2c0,0,9.7-8.4,24.3-20.9c7.3-6.2,15.9-13.5,25-21.3c9.2-7.8,19-16.1,28.8-24.4
					c9.8-8.3,19.6-16.5,28.8-24.3c9.2-7.7,17.8-14.9,25.2-21.1c14.8-12.3,24.7-20.5,24.7-20.5s-9.7,8.4-24.3,20.9
					c-7.3,6.2-15.9,13.5-25,21.3c-9.2,7.8-19,16.1-28.8,24.4c-9.8,8.3-19.6,16.5-28.8,24.3c-9.2,7.7-17.8,14.9-25.2,21.1
					C77.3,800,67.4,808.2,67.4,808.2z"/>
			</g>
			<g>
				<path class="st4" d="M81.4,822.1c0,0,9.7-8.4,24.3-20.9c7.3-6.2,15.9-13.5,25-21.3c9.2-7.8,19-16.1,28.8-24.4
					c9.8-8.3,19.6-16.5,28.8-24.3c9.2-7.7,17.8-14.9,25.2-21.1c14.8-12.3,24.7-20.5,24.7-20.5s-9.7,8.4-24.3,20.9
					c-7.3,6.2-15.9,13.5-25,21.3c-9.2,7.8-19,16.1-28.8,24.4c-9.8,8.3-19.6,16.5-28.8,24.3c-9.2,7.7-17.8,14.9-25.2,21.1
					C91.3,813.9,81.4,822.1,81.4,822.1z"/>
			</g>
		</g>
	</g>
	<g>
		
			<image style="overflow:visible;opacity:0.75;" width="1694" height="1763" xlink:href="C1FA02DC.png"  transform="matrix(0.24 0 0 0.24 489.6455 498.4841)">
		</image>
		<g>
			<g>
				<g>
					
						<image style="overflow:visible;opacity:0.75;" width="1637" height="1706" xlink:href="C1FA02C2.png"  transform="matrix(0.24 0 0 0.24 494.4975 503.3241)">
					</image>
					<g>
						
							<rect x="572" y="549.1" transform="matrix(-0.8029 -0.5962 0.5962 -0.8029 821.1224 1683.5029)" class="st6" width="233.9" height="313.7"/>
					</g>
				</g>
				<path class="st2" d="M774.9,617.7l58.6,43.3c2.8,2.1,3.4,6,1.3,8.8l-9.1,12.3c-2.1,2.8-6,3.4-8.8,1.3l-58.6-43.3
					c-2.8-2.1-3.4-6-1.3-8.8l9.1-12.3C768.2,616.3,772.1,615.7,774.9,617.7z"/>
				<path class="st2" d="M697.4,562.5l58.6,43.3c2.8,2.1,3.4,6,1.3,8.8l-9.1,12.3c-2.1,2.8-6,3.4-8.8,1.3l-58.6-43.3
					c-2.8-2.1-3.4-6-1.3-8.8l9.1-12.3C690.6,561,694.6,560.4,697.4,562.5z"/>
				<path class="st3" d="M664.6,591.2l143.7,106.2c2.8,2.1,3.4,6,1.3,8.8l-118,159.8c-2.1,2.8-6,3.4-8.8,1.3L539.1,761.1
					c-2.8-2.1-3.4-6-1.3-8.8l118-159.8C657.9,589.7,661.8,589.1,664.6,591.2z"/>
			</g>
		</g>
	</g>
	<g>
		<path class="st5" d="M1099.7,14.3"/>
	</g>
	<g>
		<path class="st5" d="M963.5,121.2"/>
	</g>
</g>
<g id="tablet" class="st8">
	<g class="st9">
		
			<image style="overflow:visible;opacity:0.75;" width="1043" height="1446" xlink:href="C1FA02C0.png"  transform="matrix(0.24 0 0 0.24 842.8687 196.0446)">
		</image>
		<g>
			<g>
				<g>
					<rect x="864.9" y="218" class="st1" width="202.2" height="298.9"/>
					<path d="M1052.1,233V502H879.9V233H1052.1 M1067.7,203H864.3c-8,0-14.4,6.4-14.4,14.4v300.1c0,8,6.4,14.4,14.4,14.4h203.4
						c8,0,14.4-6.4,14.4-14.4V217.4C1082.1,209.5,1075.6,203,1067.7,203L1067.7,203z"/>
				</g>
				<circle class="st1" cx="966" cy="516.5" r="7.5"/>
			</g>
		</g>
	</g>
	<text transform="matrix(1 0 0 1 883.931 299.7481)" class="st9"><tspan x="0" y="0" class="st10 st11 st12">//Tech_</tspan><tspan x="0" y="54" class="st10 st11 st12">nology</tspan><tspan x="0" y="108" class="st10 st11 st12">&lt;IN/&gt;</tspan><tspan x="0" y="162" class="st10 st11 st12">Design/</tspan></text>
</g>
<g id="devices">
	<g id="keyboard">
		<g>
			
				<image style="overflow:visible;opacity:0.75;" width="370" height="529" xlink:href="C1FA02C1.png"  transform="matrix(0.24 0 0 0.24 647.0783 -70.7465)">
			</image>
			<g>
				<g>
					<path class="st1" d="M684.8,17.2l0,23.4c0,2.4,2,4.4,4.4,4.4l35.6,0l0-32.2l-35.6,0C686.8,12.8,684.8,14.8,684.8,17.2z"/>
					<path class="st13" d="M684.8,28.9l-19.3,0c-4.9,0-8.9-4-8.9-8.9l-0.1-83.8"/>
				</g>
			</g>
		</g>
		<g>
			
				<image style="overflow:visible;opacity:0.75;" width="2004" height="1452" xlink:href="C1FA02CF.png"  transform="matrix(0.24 0 0 0.24 717.8098 -32.8966)">
			</image>
			<g>
				<path class="st4" d="M1187.6-13.6l-0.2,306.1c0,6.6-5.4,12-12,12l-438.6-0.3c-6.6,0-12-5.4-12-12L725-13.9c0-6.6,5.4-12,12-12
					l438.6,0.3C1182.3-25.6,1187.7-20.2,1187.6-13.6z"/>
			</g>
		</g>
		<path class="st14" d="M1150.7,22l0,148c0,6-4.9,10.9-10.9,10.9L773.4,181c-6,0-10.9-4.9-10.9-10.9l0-148c0-6,4.9-10.9,10.9-10.9
			l366.5-0.1C1145.8,11.2,1150.7,16,1150.7,22z"/>
		<path class="st14" d="M1021.3,212.9l0,54.5c0,4.9-4,8.9-8.9,8.9l-102,0c-4.9,0-8.9-4-8.9-8.9l0-54.5c0-4.9,4-8.9,8.9-8.9l102,0
			C1017.3,203.9,1021.3,207.9,1021.3,212.9z"/>
		<path class="st15" d="M802.3,28.1l0,5c0,1.8-1.5,3.3-3.3,3.3l-14.3,0c-1.8,0-3.3-1.5-3.3-3.3l0-5c0-1.8,1.5-3.3,2.1-3.3l14.3,0
			C800.8,24.8,802.3,26.3,802.3,28.1z"/>
		<path class="st15" d="M827.7,27.5l0,6.1c0,1.5-1.2,2.7-2.7,2.7l-15.5,0c-1.5,0-2.7-1.2-2.7-2.7l0-6.1c0-1.5,1.2-2.7,2.7-2.7
			l15.5,0C826.5,24.8,827.7,26,827.7,27.5z"/>
		<path class="st15" d="M853,27.5l0,6.1c0,1.5-1.2,2.7-2.7,2.7l-15.5,0c-1.5,0-2.7-1.2-2.7-2.7l0-6.1c0-1.5,1.2-2.7,2.7-2.7l15.5,0
			C851.8,24.8,853,26,853,27.5z"/>
		<path class="st15" d="M878.4,27.5l0,6.1c0,1.5-1.2,2.7-2.7,2.7l-15.5,0c-1.5,0-2.7-1.2-2.7-2.7l0-6.1c0-1.5,1.2-2.7,2.7-2.7
			l15.5,0C877.2,24.8,878.4,26,878.4,27.5z"/>
		<path class="st15" d="M903.8,27.5l0,6.1c0,1.5-1.2,2.7-2.7,2.7l-15.5,0c-1.5,0-2.7-1.2-2.7-2.7l0-6.1c0-1.5,1.2-2.7,2.7-2.7
			l15.5,0C902.5,24.8,903.8,26,903.8,27.5z"/>
		<path class="st15" d="M929.1,28.1l0,5c0,1.8-1.5,3.3-3.3,3.3l-14.3,0c-1.8,0-3.3-1.5-3.3-3.3l0-5c0-1.8,1.5-3.3,2.1-3.3l14.3,0
			C927.6,24.8,929.1,26.3,929.1,28.1z"/>
		<path class="st15" d="M954.5,27.5l0,6.1c0,1.5-1.2,2.7-2.7,2.7l-15.5,0c-1.5,0-2.7-1.2-2.7-2.7l0-6.1c0-1.5,1.2-2.7,2.7-2.7
			l15.5,0C953.3,24.8,954.5,26,954.5,27.5z"/>
		<path class="st15" d="M979.8,27.5l0,6.1c0,1.5-1.2,2.7-2.7,2.7l-15.5,0c-1.5,0-2.7-1.2-2.7-2.7l0-6.1c0-1.5,1.2-2.7,2.7-2.7
			l15.5,0C978.6,24.8,979.8,26,979.8,27.5z"/>
		<path class="st15" d="M1005.2,27.5l0,6.1c0,1.5-1.2,2.7-2.7,2.7l-15.5,0c-1.5,0-2.7-1.2-2.7-2.7l0-6.1c0-1.5,1.2-2.7,2.7-2.7
			l15.5,0C1004,24.8,1005.2,26,1005.2,27.5z"/>
		<path class="st15" d="M1030.6,27.5l0,6.1c0,1.5-1.2,2.7-2.7,2.7l-15.5,0c-1.5,0-2.7-1.2-2.7-2.7l0-6.1c0-1.5,1.2-2.7,2.7-2.7
			l15.5,0C1029.3,24.8,1030.6,26,1030.6,27.5z"/>
		<path class="st15" d="M1057.1,27.5l0,6.1c0,1.5-1.2,2.7-2.7,2.7l-15.5,0c-1.5,0-2.7-1.2-2.7-2.7l0-6.1c0-1.5,1.2-2.7,2.7-2.7
			l15.5,0C1055.8,24.8,1057.1,26,1057.1,27.5z"/>
		<path class="st15" d="M1083.6,27.5l0,6.1c0,1.5-1.2,2.7-2.7,2.7l-15.5,0c-1.5,0-2.7-1.2-2.7-2.7l0-6.1c0-1.5,1.2-2.7,2.7-2.7
			l15.5,0C1082.4,24.8,1083.6,26,1083.6,27.5z"/>
		<path class="st15" d="M1109,27.5l0,6.1c0,1.5-1.2,2.7-2.7,2.7l-15.5,0c-1.5,0-2.7-1.2-2.7-2.7l0-6.1c0-1.5,1.2-2.7,2.7-2.7l15.5,0
			C1107.8,24.8,1109,26,1109,27.5z"/>
		<path class="st15" d="M1134.4,27.5l0,6.1c0,1.5-1.2,2.7-2.7,2.7l-15.5,0c-1.5,0-2.7-1.2-2.7-2.7l0-6.1c0-1.5,1.2-2.7,2.7-2.7
			l15.5,0C1133.1,24.8,1134.4,26,1134.4,27.5z"/>
		<path class="st15" d="M803.3,150.6l0,14.3c0,2-1.6,3.6-3.7,3.6l-16.8,0c-2,0-3.6-1.6-3.6-3.7l0-14.3c0-2,1.6-3.6,3.7-3.6l16.8,0
			C801.6,147,803.3,148.6,803.3,150.6z"/>
		<path class="st15" d="M829.5,150.6l0,14.3c0,2-1.6,3.6-3.7,3.6l-15,0c-2,0-3.6-1.6-3.6-3.7l0-14.3c0-2,1.6-3.6,3.7-3.6l15,0
			C827.9,147,829.5,148.6,829.5,150.6z"/>
		<path class="st15" d="M859.6,150.6l0,14.3c0,2-1.6,3.6-3.7,3.6l-19.1,0c-2,0-3.6-1.6-3.6-3.7l0-14.3c0-2,1.6-3.6,3.7-3.6l19.1,0
			C858,147,859.6,148.6,859.6,150.6z"/>
		<path class="st15" d="M1030.3,45.6l0,14.3c0,2-1.6,3.6-3.7,3.6l-28.2,0c-2,0-3.6-1.6-3.6-3.7l0-14.3c0-2,1.6-3.6,3.7-3.6l28.2,0
			C1028.7,42,1030.3,43.6,1030.3,45.6z"/>
		<path class="st15" d="M979.5,150.7l0,14.3c0,2-1.6,3.6-3.7,3.6l-109.5-0.1c-2,0-3.6-1.6-3.6-3.7l0-14.3c0-2,1.6-3.6,3.7-3.6
			l109.5,0.1C977.9,147,979.5,148.7,979.5,150.7z"/>
		<path class="st15" d="M803.3,45.6l0,14.3c0,2-1.6,3.6-3.7,3.6l-15.2,0c-2,0-3.6-1.6-3.6-3.7l0-14.3c0-2,1.6-3.6,3.7-3.6l15.2,0
			C801.6,42,803.3,43.6,803.3,45.6z"/>
		<path class="st15" d="M830,45.6l0,14.3c0,2-1.6,3.6-3.7,3.6l-15.2,0c-2,0-3.6-1.6-3.6-3.7l0-14.3c0-2,1.6-3.6,3.7-3.6l15.2,0
			C828.3,42,830,43.6,830,45.6z"/>
		<path class="st15" d="M856.7,45.6l0,14.3c0,2-1.6,3.6-3.7,3.6l-15.2,0c-2,0-3.6-1.6-3.6-3.7l0-14.3c0-2,1.6-3.6,3.7-3.6l15.2,0
			C855.1,42,856.7,43.6,856.7,45.6z"/>
		<path class="st15" d="M883.4,45.6l0,14.3c0,2-1.6,3.6-3.7,3.6l-15.2,0c-2,0-3.6-1.6-3.6-3.7l0-14.3c0-2,1.6-3.6,3.7-3.6l15.2,0
			C881.7,42,883.4,43.6,883.4,45.6z"/>
		<path class="st15" d="M910.6,45.6l0,14.3c0,2-1.6,3.6-3.7,3.6l-15.2,0c-2,0-3.6-1.6-3.6-3.7l0-14.3c0-2,1.6-3.6,3.7-3.6l15.2,0
			C909,42,910.6,43.6,910.6,45.6z"/>
		<path class="st15" d="M937.3,45.6l0,14.3c0,2-1.6,3.6-3.7,3.6l-15.2,0c-2,0-3.6-1.6-3.6-3.7l0-14.3c0-2,1.6-3.6,3.7-3.6l15.2,0
			C935.7,42,937.3,43.6,937.3,45.6z"/>
		<path class="st15" d="M963.6,45.6l0,14.3c0,2-1.6,3.6-3.7,3.6l-15.2,0c-2,0-3.6-1.6-3.6-3.7l0-14.3c0-2,1.6-3.6,3.7-3.6l15.2,0
			C961.9,42,963.6,43.6,963.6,45.6z"/>
		<path class="st15" d="M990.8,45.6l0,14.3c0,2-1.6,3.6-3.7,3.6l-15.2,0c-2,0-3.6-1.6-3.6-3.7l0-14.3c0-2,1.6-3.6,3.7-3.6l15.2,0
			C989.2,42,990.8,43.6,990.8,45.6z"/>
		<path class="st15" d="M840.8,71.4l0,14.3c0,2-1.6,3.6-3.7,3.6l-15.2,0c-2,0-3.6-1.6-3.6-3.7l0-14.3c0-2,1.6-3.6,3.7-3.6l15.2,0
			C839.2,67.7,840.8,69.4,840.8,71.4z"/>
		<path class="st15" d="M868.2,71.4l0,14.3c0,2-1.6,3.6-3.7,3.6l-15.2,0c-2,0-3.6-1.6-3.6-3.7l0-14.3c0-2,1.6-3.6,3.7-3.6l15.2,0
			C866.6,67.7,868.2,69.4,868.2,71.4z"/>
		<path class="st15" d="M895.6,71.4l0,14.3c0,2-1.6,3.6-3.7,3.6l-15.2,0c-2,0-3.6-1.6-3.6-3.7l0-14.3c0-2,1.6-3.6,3.7-3.6l15.2,0
			C894,67.7,895.6,69.4,895.6,71.4z"/>
		<path class="st15" d="M923,71.4l0,14.3c0,2-1.6,3.6-3.7,3.6l-15.2,0c-2,0-3.6-1.6-3.6-3.7l0-14.3c0-2,1.6-3.6,3.7-3.6l15.2,0
			C921.4,67.7,923,69.4,923,71.4z"/>
		<path class="st15" d="M950.4,71.4l0,14.3c0,2-1.6,3.6-3.7,3.6l-15.2,0c-2,0-3.6-1.6-3.6-3.7l0-14.3c0-2,1.6-3.6,3.7-3.6l15.2,0
			C948.8,67.7,950.4,69.4,950.4,71.4z"/>
		<path class="st15" d="M977.8,71.4l0,14.3c0,2-1.6,3.6-3.7,3.6l-15.2,0c-2,0-3.6-1.6-3.6-3.7l0-14.3c0-2,1.6-3.6,3.7-3.6l15.2,0
			C976.2,67.7,977.8,69.4,977.8,71.4z"/>
		<path class="st15" d="M1005.2,71.4l0,14.3c0,2-1.6,3.6-3.7,3.6l-15.2,0c-2,0-3.6-1.6-3.6-3.7l0-14.3c0-2,1.6-3.6,3.7-3.6l15.2,0
			C1003.6,67.7,1005.2,69.4,1005.2,71.4z"/>
		<path class="st15" d="M1031.4,71.4l0,14.3c0,2-1.6,3.6-3.7,3.6l-15.2,0c-2,0-3.6-1.6-3.6-3.7l0-14.3c0-2,1.6-3.6,3.7-3.6l15.2,0
			C1029.8,67.7,1031.4,69.4,1031.4,71.4z"/>
		<path class="st15" d="M847.3,97l0,14.3c0,2-1.6,3.6-3.7,3.6l-15.2,0c-2,0-3.6-1.6-3.6-3.7l0-14.3c0-2,1.6-3.6,3.7-3.6l15.2,0
			C845.6,93.3,847.3,95,847.3,97z"/>
		<path class="st15" d="M873.9,97l0,14.3c0,2-1.6,3.6-3.7,3.6l-15.2,0c-2,0-3.6-1.6-3.6-3.7l0-14.3c0-2,1.6-3.6,3.7-3.6l15.2,0
			C872.3,93.3,873.9,95,873.9,97z"/>
		<path class="st15" d="M900.7,97l0,14.3c0,2-1.6,3.6-3.7,3.6l-15.2,0c-2,0-3.6-1.6-3.6-3.7l0-14.3c0-2,1.6-3.6,3.7-3.6l15.2,0
			C899,93.3,900.7,95,900.7,97z"/>
		<path class="st15" d="M927.4,97l0,14.3c0,2-1.6,3.6-3.7,3.6l-15.2,0c-2,0-3.6-1.6-3.6-3.7l0-14.3c0-2,1.6-3.6,3.7-3.6l15.2,0
			C925.7,93.3,927.4,95,927.4,97z"/>
		<path class="st15" d="M954.6,97l0,14.3c0,2-1.6,3.6-3.7,3.6l-15.2,0c-2,0-3.6-1.6-3.6-3.7l0-14.3c0-2,1.6-3.6,3.7-3.6l15.2,0
			C953,93.3,954.6,95,954.6,97z"/>
		<path class="st15" d="M981.3,97l0,14.3c0,2-1.6,3.6-3.7,3.6l-15.2,0c-2,0-3.6-1.6-3.6-3.7l0-14.3c0-2,1.6-3.6,3.7-3.6l15.2,0
			C979.7,93.3,981.3,95,981.3,97z"/>
		<path class="st15" d="M855.5,124.6l0,14.3c0,2-1.6,3.6-3.7,3.6l-15.2,0c-2,0-3.6-1.6-3.6-3.7l0-14.3c0-2,1.6-3.6,3.7-3.6l15.2,0
			C853.9,121,855.5,122.6,855.5,124.6z"/>
		<path class="st15" d="M882.2,124.6l0,14.3c0,2-1.6,3.6-3.7,3.6l-15.2,0c-2,0-3.6-1.6-3.6-3.7l0-14.3c0-2,1.6-3.6,3.7-3.6l15.2,0
			C880.6,121,882.2,122.6,882.2,124.6z"/>
		<path class="st15" d="M908.9,124.6l0,14.3c0,2-1.6,3.6-3.7,3.6l-15.2,0c-2,0-3.6-1.6-3.6-3.7l0-14.3c0-2,1.6-3.6,3.7-3.6l15.2,0
			C907.3,121,908.9,122.6,908.9,124.6z"/>
		<path class="st15" d="M1006.6,150.6l0,14.3c0,2-1.6,3.6-3.7,3.6l-15.2,0c-2,0-3.6-1.6-3.6-3.7l0-14.3c0-2,1.6-3.6,3.7-3.6l15.2,0
			C1004.9,146.9,1006.6,148.6,1006.6,150.6z"/>
		<path class="st15" d="M1032,150.6l0,14.3c0,2-1.6,3.6-3.7,3.6l-15.2,0c-2,0-3.6-1.6-3.6-3.7l0-14.3c0-2,1.6-3.6,3.7-3.6l15.2,0
			C1030.4,146.9,1032,148.6,1032,150.6z"/>
		<path class="st15" d="M1032,124.6l0,14.3c0,2-1.6,3.6-3.7,3.6l-15.2,0c-2,0-3.6-1.6-3.6-3.7l0-14.3c0-2,1.6-3.6,3.7-3.6l15.2,0
			C1030.4,120.9,1032.1,122.6,1032,124.6z"/>
		<path class="st15" d="M1058.8,150.6l0,14.3c0,2-1.6,3.6-3.7,3.6l-15.2,0c-2,0-3.6-1.6-3.6-3.7l0-14.3c0-2,1.6-3.6,3.7-3.6l15.2,0
			C1057.1,146.9,1058.8,148.6,1058.8,150.6z"/>
		<path class="st15" d="M1058.8,124.6l0,14.3c0,2-1.6,3.6-3.7,3.6l-15.2,0c-2,0-3.6-1.6-3.6-3.7l0-14.3c0-2,1.6-3.6,3.7-3.6l15.2,0
			C1057.2,121,1058.8,122.6,1058.8,124.6z"/>
		<path class="st15" d="M1084.3,124.6l0,14.3c0,2-1.6,3.6-3.7,3.6l-15.2,0c-2,0-3.6-1.6-3.6-3.7l0-14.3c0-2,1.6-3.6,3.7-3.6l15.2,0
			C1082.6,121,1084.3,122.6,1084.3,124.6z"/>
		<path class="st15" d="M1109.8,124.6l0,14.3c0,2-1.6,3.6-3.7,3.6l-15.2,0c-2,0-3.6-1.6-3.6-3.7l0-14.3c0-2,1.6-3.6,3.7-3.6l15.2,0
			C1108.1,121,1109.8,122.6,1109.8,124.6z"/>
		<path class="st15" d="M1085.1,150.6l0,14.3c0,2-1.6,3.6-3.7,3.6l-15.2,0c-2,0-3.6-1.6-3.6-3.7l0-14.3c0-2,1.6-3.6,3.7-3.6l15.2,0
			C1083.4,146.9,1085.1,148.6,1085.1,150.6z"/>
		<path class="st15" d="M1110.6,150.6l0,14.3c0,2-1.6,3.6-3.7,3.6l-15.2,0c-2,0-3.6-1.6-3.6-3.7l0-14.3c0-2,1.6-3.6,3.7-3.6l15.2,0
			C1109,146.9,1110.6,148.6,1110.6,150.6z"/>
		<path class="st15" d="M1058.8,97.1l0,14.3c0,2-1.6,3.6-3.7,3.6l-15.2,0c-2,0-3.6-1.6-3.6-3.7l0-14.3c0-2,1.6-3.6,3.7-3.6l15.2,0
			C1057.1,93.4,1058.8,95.1,1058.8,97.1z"/>
		<path class="st15" d="M1084.2,97.1l0,14.3c0,2-1.6,3.6-3.7,3.6l-15.2,0c-2,0-3.6-1.6-3.6-3.7l0-14.3c0-2,1.6-3.6,3.7-3.6l15.2,0
			C1082.6,93.4,1084.2,95.1,1084.2,97.1z"/>
		<path class="st15" d="M1109.8,97.1l0,14.3c0,2-1.6,3.6-3.7,3.6l-15.2,0c-2,0-3.6-1.6-3.6-3.7l0-14.3c0-2,1.6-3.6,3.7-3.6l15.2,0
			C1108.1,93.4,1109.8,95.1,1109.8,97.1z"/>
		<path class="st15" d="M1057.6,71.5l0,14.3c0,2-1.6,3.6-3.7,3.6l-15.2,0c-2,0-3.6-1.6-3.6-3.7l0-14.3c0-2,1.6-3.6,3.7-3.6l15.2,0
			C1055.9,67.8,1057.6,69.5,1057.6,71.5z"/>
		<path class="st15" d="M1084.3,71.5l0,14.3c0,2-1.6,3.6-3.7,3.6l-15.2,0c-2,0-3.6-1.6-3.6-3.7l0-14.3c0-2,1.6-3.6,3.7-3.6l15.2,0
			C1082.6,67.8,1084.3,69.5,1084.3,71.5z"/>
		<path class="st15" d="M1109.8,71.5l0,14.3c0,2-1.6,3.6-3.7,3.6l-15.2,0c-2,0-3.6-1.6-3.6-3.7l0-14.3c0-2,1.6-3.6,3.7-3.6l15.2,0
			C1108.1,67.8,1109.8,69.5,1109.8,71.5z"/>
		<path class="st15" d="M1135.6,71.5l0,39.8c0,2-1.6,3.6-3.7,3.6l-15.2,0c-2,0-3.6-1.6-3.6-3.7l0-39.8c0-2,1.6-3.6,3.7-3.6l15.2,0
			C1133.9,67.8,1135.6,69.5,1135.6,71.5z"/>
		<path class="st15" d="M1135.6,124.6l0,39.8c0,2-1.6,3.6-3.7,3.6l-15.2,0c-2,0-3.6-1.6-3.6-3.7l0-39.8c0-2,1.6-3.6,3.7-3.6l15.2,0
			C1134,121,1135.6,122.6,1135.6,124.6z"/>
		<path class="st15" d="M1057.5,45.7l0,14.3c0,2-1.6,3.6-3.7,3.6l-15.2,0c-2,0-3.6-1.6-3.6-3.7l0-14.3c0-2,1.6-3.6,3.7-3.6l15.2,0
			C1055.9,42.1,1057.5,43.7,1057.5,45.7z"/>
		<path class="st15" d="M1084.2,45.7l0,14.3c0,2-1.6,3.6-3.7,3.6l-15.2,0c-2,0-3.6-1.6-3.6-3.7l0-14.3c0-2,1.6-3.6,3.7-3.6l15.2,0
			C1082.6,42.1,1084.2,43.7,1084.2,45.7z"/>
		<path class="st15" d="M1109.7,45.7l0,14.3c0,2-1.6,3.6-3.7,3.6l-15.2,0c-2,0-3.6-1.6-3.6-3.7l0-14.3c0-2,1.6-3.6,3.7-3.6l15.2,0
			C1108.1,42.1,1109.7,43.7,1109.7,45.7z"/>
		<path class="st15" d="M1135.6,45.6l0,14.3c0,2-1.6,3.6-3.7,3.6l-15.2,0c-2,0-3.6-1.6-3.6-3.7l0-14.3c0-2,1.6-3.6,3.7-3.6l15.2,0
			C1133.9,42,1135.6,43.6,1135.6,45.6z"/>
		<path class="st15" d="M935.6,124.6l0,14.3c0,2-1.6,3.6-3.7,3.6l-15.2,0c-2,0-3.6-1.6-3.6-3.7l0-14.3c0-2,1.6-3.6,3.7-3.6l15.2,0
			C934,121,935.6,122.6,935.6,124.6z"/>
		<path class="st15" d="M963.6,124.6l0,14.3c0,2-1.6,3.6-3.7,3.6l-15.2,0c-2,0-3.6-1.6-3.6-3.7l0-14.3c0-2,1.6-3.6,3.7-3.6l15.2,0
			C961.9,121,963.6,122.6,963.6,124.6z"/>
		<path class="st15" d="M827.3,124.6l0,14.3c0,2-1.6,3.6-3.7,3.6l-40.8-0.1c-2,0-3.6-1.6-3.6-3.7l0-14.3c0-2,1.6-3.6,3.7-3.6
			l40.8,0.1C825.7,121,827.3,122.6,827.3,124.6z"/>
		<path class="st15" d="M1005.2,124.6l0,14.3c0,2-1.6,3.6-3.7,3.6l-28.5,0c-2,0-3.6-1.6-3.6-3.7l0-14.3c0-2,1.6-3.6,3.7-3.6l28.5,0
			C1003.6,120.9,1005.2,122.6,1005.2,124.6z"/>
		<path class="st15" d="M1032.5,97l0,14.3c0,2-1.6,3.6-3.7,3.6l-40.8-0.1c-2,0-3.6-1.6-3.6-3.7l0-14.3c0-2,1.6-3.6,3.7-3.6l40.8,0.1
			C1030.9,93.3,1032.5,95,1032.5,97z"/>
		<path class="st15" d="M819.8,97l0,14.3c0,2-1.6,3.6-3.7,3.6l-32.4,0c-2,0-3.6-1.6-3.6-3.7l0-14.3c0-2,1.6-3.6,3.7-3.6l32.4,0
			C818.2,93.3,819.8,95,819.8,97z"/>
		<path class="st15" d="M813,71.4l0,14.3c0,2-1.6,3.6-3.7,3.6l-25.4,0c-2,0-3.6-1.6-3.6-3.7l0-14.3c0-2,1.6-3.6,3.7-3.6l25.4,0
			C811.3,67.7,813,69.4,813,71.4z"/>
		<path class="st5" d="M720.2,294.6l12.4-19.3c0.8,1,1.7,1.9,2.6,2.9l-11.9,18.4L720.2,294.6z"/>
		<path class="st5" d="M644.6,160.1l70.2,45.4c-0.3,0.4-0.6,0.8-0.9,1.3c-0.4,0.6-0.8,1.2-1.1,1.9l-70.2-45.4L644.6,160.1z"/>
		
			<rect x="757.9" y="234.9" transform="matrix(-0.5427 0.8399 -0.8399 -0.5427 1371.0209 -272.9103)" class="st5" width="3.7" height="3.7"/>
	</g>
	<g id="phone" class="st8">
		<g class="st9">
			
				<image style="overflow:visible;opacity:0.75;" width="583" height="1093" xlink:href="C1FA02CD.png"  transform="matrix(0.24 0 0 0.24 514.0015 312.4928)">
			</image>
			<g>
				<g>
					<g>
						<path class="st1" d="M536.7,561.3c-7.3,0-13.2-6.7-13.2-15V337c0-7.5,5-13.9,11.5-14.9c0.6-0.1,1.1-0.1,1.7-0.1h90.4
							c1.7,0,3.3,0.4,4.9,1c5.1,2.3,8.4,7.8,8.4,14v209.3c0,8.3-5.9,15-13.2,15H536.7z"/>
						<path d="M627.1,324.5c1.3,0,2.6,0.3,3.8,0.8c4.1,1.9,6.9,6.6,6.9,11.7v209.3c0,6.9-4.8,12.5-10.7,12.5h-90.4
							c-5.9,0-10.7-5.6-10.7-12.5V337c0-6.3,4-11.6,9.4-12.4c0,0,0.1,0,0.1,0c0.4-0.1,0.8-0.1,1.2-0.1H627.1 M627.1,319.5h-90.4
							c-0.7,0-1.4,0-2.1,0.2c-7.7,1.1-13.7,8.5-13.7,17.4v209.3c0,9.7,7,17.5,15.7,17.5h90.4c8.7,0,15.7-7.8,15.7-17.5V337
							c0-7.3-4.1-13.6-9.8-16.2C631.2,319.9,629.2,319.5,627.1,319.5L627.1,319.5z"/>
					</g>
				</g>
			</g>
		</g>
		<path class="st9" d="M642.8,337v18.3H521V337c0-8.9,6-16.2,13.7-17.4l98.3,1.1C638.8,323.4,642.8,329.7,642.8,337z"/>
		<path class="st9" d="M521,546.4v-18.8h121.8v18.8c0,8.9-6,16.2-13.7,17.4l-98.3-1.1C525.1,560.1,521,553.8,521,546.4z"/>
		<circle class="st16" cx="581.9" cy="545.7" r="6.6"/>
	</g>
	<g id="mouse">
		
			<image style="overflow:visible;opacity:0.75;" width="458" height="1213" xlink:href="C1FA02CA.png"  transform="matrix(0.24 0 0 0.24 1204.8063 -32.8949)">
		</image>
		<g>
			<g>
				<path class="st1" d="M1269.6,247.1h-23.8c-18.7,0-34-15.3-34-34V110.5c0-18.7,15.3-34,34-34h23.8c18.7,0,34,15.3,34,34V213
					C1303.6,231.7,1288.3,247.1,1269.6,247.1z"/>
				<path class="st13" d="M1257.7,76.3V31.1c0-6,4.9-10.9,10.9-10.9h9.4c7.6,0,13.7-6.1,13.7-13.7v-32.4"/>
				<circle class="st4" cx="1257.7" cy="118.7" r="7.4"/>
			</g>
		</g>
	</g>
	<g id="pencil">
		
			<image style="overflow:visible;opacity:0.75;" width="778" height="622" xlink:href="C1FA02CC.png"  transform="matrix(0.24 0 0 0.24 956.162 396.4734)">
		</image>
		<g>
			<g>
				<path class="st10" d="M1130.7,414.4c1.3-1,1.6-2.9,0.6-4.2l-4.2-5.5c-1-1.3-2.9-1.6-4.2-0.6l-6.9,5.3c2.6,3.4,5.3,6.9,7.9,10.3
					L1130.7,414.4z"/>
				<path class="st17" d="M1120.9,421.9l2.9-2.2c-2.6-3.4-5.3-6.9-7.9-10.3l-2.9,2.2C1115.6,415,1118.3,418.5,1120.9,421.9z"/>
				<path class="st18" d="M983.5,527.2l137.4-105.3c-2.6-3.4-5.3-6.9-7.9-10.3L975.6,516.9L983.5,527.2z"/>
				<path class="st19" d="M983.5,527.2l-7.9-10.3l-10,14.2c0.5,0.7,1,1.4,1.6,2L983.5,527.2z"/>
				<path class="st20" d="M967.2,533.1c-0.5-0.7-1-1.4-1.6-2l-2.4,3.5L967.2,533.1z"/>
			</g>
		</g>
	</g>
	<g id="pencil_1_">
		
			<image style="overflow:visible;opacity:0.75;" width="539" height="935" xlink:href="C1FA02FA.png"  transform="matrix(0.24 0 0 0.24 642.2111 212.8271)">
		</image>
		<g>
			<g>
				<path class="st10" d="M661.1,221.7c-0.8-1.6-2.7-2.3-4.2-1.6l-6.2,3.2c-1.5,0.8-2,2.7-1.1,4.3l4.4,8.5c3.8-2,7.7-4,11.5-6
					L661.1,221.7z"/>
				<path class="st17" d="M667.4,233.7l-1.9-3.6c-3.8,2-7.7,4-11.5,6l1.9,3.6C659.7,237.7,663.6,235.7,667.4,233.7z"/>
				<path class="st18" d="M755.6,403l-88.2-169.2c-3.8,2-7.7,4-11.5,6L744.1,409L755.6,403z"/>
				<path class="st19" d="M755.6,403l-11.5,6l13.1,13.8c0.8-0.4,1.5-0.8,2.3-1.2L755.6,403z"/>
				<path class="st20" d="M759.5,421.6c-0.8,0.4-1.5,0.8-2.3,1.2l3.2,3.4L759.5,421.6z"/>
			</g>
		</g>
	</g>
</g>
</svg>
